<?xml version="1.0" standalone="no"?>
<!DOCTYPE svg PUBLIC "-//W3C//DTD SVG 20010904//EN"
 "http://www.w3.org/TR/2001/REC-SVG-20010904/DTD/svg10.dtd">
<svg version="1.0" xmlns="http://www.w3.org/2000/svg"
 width="128.000000pt" height="124.000000pt" viewBox="0 0 128.000000 124.000000"
 preserveAspectRatio="xMidYMid meet">

<g transform="translate(0.000000,124.000000) scale(0.100000,-0.100000)"
fill="#000000" stroke="none">
<path d="M0 1150 l0 -90 225 0 c193 0 225 -2 225 -15 0 -8 -4 -15 -10 -15 -5
0 -10 6 -10 13 0 9 -2 9 -9 -1 -4 -7 -12 -12 -17 -11 -5 1 -16 1 -24 0 -13 -1
-13 -2 0 -11 8 -5 10 -10 4 -10 -7 0 -11 -8 -10 -17 0 -10 -6 -18 -14 -18 -8
0 -15 -7 -15 -15 -1 -8 -7 -14 -15 -12 -12 3 -12 1 -3 -9 10 -10 18 -8 41 14
17 17 35 25 44 22 9 -4 36 -1 59 6 40 10 42 12 22 21 -11 6 -23 21 -26 34 l-4
24 408 0 409 0 0 90 0 90 -640 0 -640 0 0 -90z m310 64 c0 -4 -14 -31 -31 -60
l-30 -54 30 0 c21 0 31 -5 31 -15 0 -11 -12 -15 -50 -15 -59 0 -63 10 -25 70
31 48 31 57 4 56 -12 -1 -24 5 -26 12 -3 8 10 12 46 12 28 0 51 -3 51 -6z
m117 -59 c12 -33 22 -66 22 -72 1 -21 -27 -15 -34 7 -9 27 -49 26 -68 -2 -27
-41 -31 -9 -8 63 20 61 25 70 44 67 17 -2 27 -18 44 -63z m107 23 l25 -43 1
43 c0 30 4 42 15 42 12 0 15 -15 15 -76 0 -66 -2 -75 -17 -72 -10 2 -29 23
-43 48 l-25 45 -5 -44 c-3 -25 -11 -46 -17 -49 -10 -3 -13 16 -13 72 0 68 2
76 19 76 12 0 29 -16 45 -42z m116 -5 c0 -56 10 -76 36 -71 16 3 20 14 22 61
2 42 7 57 17 57 12 0 15 -15 15 -65 0 -53 -3 -66 -19 -75 -29 -15 -62 -12 -83
7 -24 21 -27 133 -3 133 11 0 15 -12 15 -47z m270 33 c20 -25 8 -60 -27 -76
-22 -10 -33 -22 -33 -37 0 -14 -6 -23 -15 -23 -12 0 -15 15 -15 75 l0 75 39 0
c21 0 44 -6 51 -14z m118 2 c-3 -7 -16 -13 -29 -13 -31 0 -32 -29 -1 -33 31
-5 29 -32 -3 -32 -21 0 -25 -5 -25 -30 0 -20 -5 -30 -15 -30 -12 0 -15 15 -15
75 l0 75 46 0 c32 0 44 -4 42 -12z"/>
<path d="M372 1160 c-7 -19 -6 -26 5 -28 21 -5 25 2 14 29 l-9 24 -10 -25z"/>
<path d="M860 1175 c0 -16 6 -25 15 -25 21 0 31 30 14 41 -23 14 -29 11 -29
-16z"/>
<path d="M225 1030 c3 -5 -4 -10 -17 -11 -22 -1 -21 -2 5 -12 34 -13 37 -47 5
-47 -13 0 -30 -5 -38 -10 -11 -7 -4 -10 28 -10 23 0 42 -4 42 -10 0 -5 -5 -9
-11 -7 -6 1 -14 -4 -17 -12 -3 -9 0 -11 8 -6 9 5 10 2 5 -14 -4 -14 -2 -23 8
-27 9 -3 13 -13 9 -26 -3 -14 -1 -19 6 -14 8 5 12 -3 12 -26 1 -28 2 -30 11
-15 6 10 8 25 5 33 -3 9 -1 24 4 35 9 15 22 19 69 19 42 0 60 4 64 14 7 17
-14 26 -66 28 -21 1 -34 5 -30 11 4 6 -3 8 -16 4 -18 -4 -21 -2 -16 13 3 10 1
21 -5 25 -18 11 -11 23 26 45 44 28 38 36 -11 16 -47 -20 -55 -20 -55 -1 0 8
-7 15 -16 15 -8 0 -12 -4 -9 -10z m43 -65 c-3 -3 -9 2 -12 12 -6 14 -5 15 5 6
7 -7 10 -15 7 -18z m23 -55 c6 0 7 -5 4 -10 -10 -16 -25 -1 -24 23 1 17 2 18
6 5 2 -10 9 -18 14 -18z m94 -20 c3 -5 1 -10 -4 -10 -6 0 -11 5 -11 10 0 6 2
10 4 10 3 0 8 -4 11 -10z"/>
<path d="M776 1015 c-16 -12 -17 -15 -4 -15 8 0 21 7 28 15 16 19 1 19 -24 0z"/>
<path d="M794 995 c-16 -12 -17 -16 -5 -24 19 -12 6 -45 -15 -37 -9 4 -23 1
-30 -5 -11 -9 -14 -9 -14 0 0 7 -4 10 -10 6 -5 -3 -18 0 -28 6 -15 10 -24 9
-43 -4 -18 -13 -19 -17 -7 -17 9 0 19 -8 23 -19 4 -14 15 -18 45 -17 49 1 73
-20 74 -67 1 -30 -1 -34 -16 -26 -10 5 -26 28 -36 50 -16 36 -20 38 -25 20 -3
-12 -1 -19 4 -15 5 3 8 -5 6 -18 -1 -14 3 -23 12 -23 8 0 16 -6 19 -14 3 -9 0
-11 -8 -6 -8 5 -7 -1 3 -16 11 -15 17 -46 18 -89 1 -36 4 -55 6 -42 9 45 23
21 19 -33 -2 -30 1 -76 6 -102 15 -75 16 -93 7 -93 -5 0 -9 -5 -9 -11 0 -5 4
-8 8 -5 8 5 10 0 13 -36 1 -7 -2 -21 -6 -31 -5 -13 -3 -16 8 -12 12 5 26 -18
27 -45 0 -8 -64 -6 -71 2 -6 9 -59 -13 -59 -25 0 -4 8 -3 18 2 14 7 51 8 92 1
3 0 -2 -5 -10 -10 -29 -19 14 -11 58 10 22 11 45 20 49 20 4 0 18 11 31 24 16
17 23 39 25 75 2 29 -1 51 -6 51 -6 0 -2 9 7 19 10 11 15 25 11 30 -3 6 -1 11
5 11 6 0 9 4 5 9 -3 5 6 18 20 29 17 14 22 23 14 27 -6 4 -15 1 -20 -6 -7 -11
-9 -11 -9 3 0 15 -10 16 -85 13 l-85 -5 0 39 c0 53 8 71 32 71 11 0 18 5 16
13 -9 26 -43 13 -53 -20 -16 -57 -23 -36 -21 60 2 70 8 102 24 133 26 51 37
56 104 44 94 -17 92 -17 94 13 2 15 -2 27 -7 27 -6 0 -7 5 -4 10 9 15 -6 12
-25 -5 -19 -18 -54 -9 -46 11 6 16 -20 39 -29 24 -8 -13 -65 -13 -65 -1 0 6 5
13 10 16 6 3 10 10 10 16 0 14 -54 11 -76 -6z m153 -81 c-3 -3 -12 -4 -19 -1
-8 3 -5 6 6 6 11 1 17 -2 13 -5z m-111 -30 c-4 -9 -9 -15 -11 -12 -3 3 -3 13
1 22 4 9 9 15 11 12 3 -3 3 -13 -1 -22z m-23 -14 c3 -13 0 -20 -9 -20 -8 0
-14 9 -14 20 0 11 4 20 9 20 5 0 11 -9 14 -20z m-16 -62 c-3 -7 -5 -2 -5 12 0
14 2 19 5 13 2 -7 2 -19 0 -25z m-16 -60 c5 -44 4 -68 -2 -68 -4 0 -9 18 -11
40 -2 22 0 40 4 40 5 0 9 -6 9 -12z m38 -220 c-1 -37 -5 -55 -10 -46 -12 19
-11 121 1 113 6 -3 9 -33 9 -67z"/>
<path d="M1035 870 c-3 -5 1 -10 10 -10 9 0 13 5 10 10 -3 6 -8 10 -10 10 -2
0 -7 -4 -10 -10z"/>
<path d="M301 804 c-15 -41 -21 -79 -22 -142 0 -52 -4 -79 -8 -67 -8 19 -8 19
-20 -3 -6 -12 -20 -22 -31 -22 -25 0 -35 -17 -20 -35 6 -8 8 -20 4 -26 -4 -7
-3 -9 3 -6 13 8 24 -29 28 -92 2 -24 10 -48 17 -52 10 -7 10 -9 1 -9 -7 0 -13
-7 -13 -15 0 -7 -6 -18 -13 -22 -8 -4 -16 -16 -20 -25 -4 -11 -17 -18 -31 -18
-14 0 -27 -4 -31 -9 -3 -6 34 -8 92 -6 59 2 103 -1 110 -7 9 -7 17 -7 26 0 6
5 37 8 67 7 33 -2 58 1 62 8 5 8 8 6 8 -5 0 -10 5 -18 11 -18 5 0 7 4 4 10 -3
6 1 7 9 4 9 -3 16 -1 16 4 0 6 13 9 29 7 21 -2 28 0 25 10 -3 7 -13 11 -22 8
-13 -3 -18 4 -20 29 -9 86 -5 111 21 118 10 3 18 8 18 13 -1 4 -1 18 -1 32 0
20 -5 25 -25 25 -14 0 -25 5 -25 11 0 6 9 9 20 6 11 -3 18 -1 15 3 -3 5 -2 10
2 13 5 2 3 3 -4 1 -6 -1 -13 6 -16 17 -5 19 12 27 27 12 3 -4 13 -8 22 -9 13
-2 13 1 -2 23 -16 25 -16 27 2 41 16 12 16 14 2 9 -14 -5 -16 -2 -8 17 5 13 7
32 5 42 -2 11 -4 24 -5 29 0 6 -6 1 -12 -9 -8 -15 -8 -21 0 -24 17 -5 15 -19
-4 -26 -8 -3 -13 -2 -9 3 3 5 -1 11 -7 14 -10 4 -11 7 0 18 13 14 17 33 4 25
-4 -2 -13 3 -19 13 -8 13 -7 22 5 36 13 18 14 18 8 2 -4 -13 -2 -17 6 -14 7 2
12 10 11 16 -2 6 6 11 18 11 11 0 17 -4 14 -10 -3 -5 -2 -10 3 -10 15 0 22 28
9 34 -9 5 -9 7 1 12 23 11 12 24 -22 24 -22 0 -42 -9 -60 -25 -15 -14 -33 -22
-39 -19 -7 4 -9 4 -5 -1 4 -4 4 -13 -1 -19 -5 -6 -17 -52 -26 -103 -20 -102
-17 -100 -106 -95 -43 3 -59 8 -63 20 -3 10 -3 -22 0 -70 4 -79 17 -146 39
-203 4 -11 -3 -5 -14 13 -12 19 -26 55 -31 80 -13 75 -23 307 -14 349 l8 38 6
-40 7 -40 2 48 c0 27 6 57 11 67 6 10 6 21 1 24 -4 3 -18 -19 -30 -50z m289
-349 c0 -8 -7 -15 -16 -15 -14 0 -14 3 -4 15 7 8 14 15 16 15 2 0 4 -7 4 -15z"/>
<path d="M203 803 c-7 -2 -13 -10 -13 -17 0 -21 59 -143 60 -123 0 10 -12 40
-26 68 -14 28 -22 54 -18 57 4 4 9 1 11 -5 3 -7 13 -23 24 -35 l20 -23 -7 35
c-8 43 -22 55 -51 43z"/>
<path d="M843 742 c-17 -13 -20 -21 -13 -32 9 -13 13 -11 30 10 32 41 23 54
-17 22z"/>
<path d="M302 690 c0 -14 4 -36 8 -50 l8 -25 0 25 c0 14 -4 36 -8 50 l-8 25 0
-25z"/>
<path d="M636 654 c9 -37 12 -41 20 -21 3 9 -1 24 -11 33 -15 15 -15 14 -9
-12z"/>
<path d="M762 588 c-1 -10 -9 -18 -18 -18 -9 0 -12 -5 -8 -11 4 -6 8 -43 10
-83 2 -39 8 -72 13 -74 5 -2 7 -12 4 -22 -3 -11 -2 -28 2 -37 13 -35 25 11 16
65 -5 33 -4 52 2 52 6 0 5 5 -1 13 -6 7 -13 40 -15 72 -2 33 -4 52 -5 43z"/>
<path d="M648 443 c7 -3 16 -2 19 1 4 3 -2 6 -13 5 -11 0 -14 -3 -6 -6z"/>
<path d="M580 409 c0 -5 5 -7 10 -4 6 3 10 8 10 11 0 2 -4 4 -10 4 -5 0 -10
-5 -10 -11z"/>
<path d="M565 370 c3 -5 8 -10 11 -10 2 0 4 5 4 10 0 6 -5 10 -11 10 -5 0 -7
-4 -4 -10z"/>
<path d="M640 265 l-25 -14 30 4 c17 2 34 4 38 4 10 1 -1 21 -11 21 -4 -1 -18
-7 -32 -15z"/>
<path d="M162 145 c0 -16 2 -22 5 -12 2 9 2 23 0 30 -3 6 -5 -1 -5 -18z"/>
<path d="M201 165 c1 -19 18 -51 18 -35 0 8 -4 22 -9 30 -5 8 -9 11 -9 5z"/>
<path d="M605 150 c10 -11 20 -20 23 -20 3 0 -3 9 -13 20 -10 11 -20 20 -23
20 -3 0 3 -9 13 -20z"/>
<path d="M677 149 c4 -13 8 -18 11 -10 2 7 -1 18 -6 23 -8 8 -9 4 -5 -13z"/>
<path d="M722 145 c0 -16 2 -22 5 -12 2 9 2 23 0 30 -3 6 -5 -1 -5 -18z"/>
<path d="M752 150 c0 -14 2 -19 5 -12 2 6 2 18 0 25 -3 6 -5 1 -5 -13z"/>
<path d="M1060 161 c0 -6 4 -13 10 -16 6 -3 7 1 4 9 -7 18 -14 21 -14 7z"/>
<path d="M1102 145 c0 -16 2 -22 5 -12 2 9 2 23 0 30 -3 6 -5 -1 -5 -18z"/>
<path d="M961 144 c0 -11 3 -14 6 -6 3 7 2 16 -1 19 -3 4 -6 -2 -5 -13z"/>
<path d="M320 40 l0 -40 301 0 300 0 -3 38 -3 37 -297 3 -298 2 0 -40z"/>
</g>
</svg>
